<svg version="1.1" id="Layer_1" xmlns="http://www.w3.org/2000/svg" xmlns:xlink="http://www.w3.org/1999/xlink" x="0px" y="0px"
	 width="100%" viewBox="0 0 500 500" enable-background="new 0 0 500 500" xml:space="preserve">
<path fill="#000000" opacity="1.000000" stroke="none" 
	d="
M241.000000,501.000000 
	C160.666687,501.000000 80.833374,501.000000 1.000043,501.000000 
	C1.000029,334.333405 1.000029,167.666779 1.000014,1.000132 
	C167.666565,1.000088 334.333130,1.000088 500.999756,1.000044 
	C500.999847,167.666519 500.999847,334.333038 500.999939,500.999786 
	C414.500000,501.000000 328.000000,501.000000 241.000000,501.000000 
M211.916199,147.296249 
	C201.011490,184.058762 190.106781,220.821274 179.148087,257.765747 
	C175.140198,256.860168 171.939926,256.023346 168.695648,255.425308 
	C158.903809,253.620331 149.151810,251.275345 139.272202,250.386536 
	C132.889664,249.812332 127.310776,252.973297 124.683334,259.590637 
	C122.369041,265.419373 123.752365,272.253326 129.274963,276.721100 
	C133.742981,280.335724 138.851669,283.319855 144.034302,285.850098 
	C150.989624,289.245880 158.289932,291.935028 165.729706,295.047821 
	C155.301270,322.287262 144.141052,348.861267 127.731926,372.896515 
	C120.342705,383.719818 111.699982,393.294159 100.667336,400.576660 
	C89.791237,407.755768 78.198471,409.041565 65.842628,405.345459 
	C50.873623,400.867706 39.135426,391.438324 28.056181,380.956238 
	C26.588053,379.567261 25.024534,378.279144 23.505207,376.944305 
	C23.070545,377.271820 22.635885,377.599365 22.201223,377.926880 
	C22.761528,379.200684 23.052574,380.708801 23.924877,381.711060 
	C30.689690,389.483337 36.873352,397.966003 44.622017,404.614502 
	C51.158974,410.223267 59.105328,414.907684 67.210464,417.832581 
	C89.365044,425.827454 108.703522,418.459106 126.025337,404.330078 
	C144.238922,389.473663 157.691010,370.658142 168.998886,350.325806 
	C177.382233,335.251984 184.966370,319.733673 193.348129,303.561310 
	C217.729370,312.775696 242.852203,321.476562 267.288544,331.802094 
	C282.040588,338.035522 295.725098,346.794647 309.892242,354.413483 
	C313.305237,356.248901 315.084229,359.041168 316.154419,362.842957 
	C318.853180,372.429993 321.744446,381.986298 325.121033,391.352142 
	C328.207336,399.912750 331.683777,408.381866 335.760651,416.503601 
	C336.854584,418.682861 340.896179,420.718628 343.347717,420.471375 
	C345.431427,420.261200 348.451538,416.875580 348.829254,414.535339 
	C349.983673,407.382538 351.119507,399.942688 350.352600,392.820160 
	C348.482361,375.449890 338.745148,361.904053 326.631958,350.061005 
	C322.757996,346.273468 320.414764,342.225006 319.345306,336.985657 
	C316.703705,324.044525 313.740234,311.169098 310.806549,297.813904 
	C342.262604,297.070953 372.440918,292.725037 401.786652,283.137146 
	C431.366516,273.472778 457.554260,258.328735 479.485443,235.954086 
	C477.523407,235.805008 475.844574,236.308044 474.483917,237.263947 
	C459.997467,247.441483 444.539764,255.819565 427.975983,262.046082 
	C392.224823,275.485413 355.001312,279.492065 317.105042,278.930054 
	C306.780518,278.776947 306.894409,278.687286 304.972168,268.500549 
	C295.691284,219.317871 286.249298,170.156372 272.858917,121.889420 
	C269.598572,110.137161 265.538483,98.370911 260.003937,87.553619 
	C254.763184,77.310532 240.453339,77.366386 233.657211,86.766777 
	C230.875946,90.613846 228.574646,95.033333 227.061630,99.531044 
	C221.821548,115.108101 217.023880,130.833984 211.916199,147.296249 
z"/>
<path fill="#FCFCFC" opacity="1.000000" stroke="none" 
	d="
M211.987015,146.899750 
	C217.023880,130.833984 221.821548,115.108101 227.061630,99.531044 
	C228.574646,95.033333 230.875946,90.613846 233.657211,86.766777 
	C240.453339,77.366386 254.763184,77.310532 260.003937,87.553619 
	C265.538483,98.370911 269.598572,110.137161 272.858917,121.889420 
	C286.249298,170.156372 295.691284,219.317871 304.972168,268.500549 
	C306.894409,278.687286 306.780518,278.776947 317.105042,278.930054 
	C355.001312,279.492065 392.224823,275.485413 427.975983,262.046082 
	C444.539764,255.819565 459.997467,247.441483 474.483917,237.263947 
	C475.844574,236.308044 477.523407,235.805008 479.485443,235.954086 
	C457.554260,258.328735 431.366516,273.472778 401.786652,283.137146 
	C372.440918,292.725037 342.262604,297.070953 310.806549,297.813904 
	C313.740234,311.169098 316.703705,324.044525 319.345306,336.985657 
	C320.414764,342.225006 322.757996,346.273468 326.631958,350.061005 
	C338.745148,361.904053 348.482361,375.449890 350.352600,392.820160 
	C351.119507,399.942688 349.983673,407.382538 348.829254,414.535339 
	C348.451538,416.875580 345.431427,420.261200 343.347717,420.471375 
	C340.896179,420.718628 336.854584,418.682861 335.760651,416.503601 
	C331.683777,408.381866 328.207336,399.912750 325.121033,391.352142 
	C321.744446,381.986298 318.853180,372.429993 316.154419,362.842957 
	C315.084229,359.041168 313.305237,356.248901 309.892242,354.413483 
	C295.725098,346.794647 282.040588,338.035522 267.288544,331.802094 
	C242.852203,321.476562 217.729370,312.775696 193.348129,303.561310 
	C184.966370,319.733673 177.382233,335.251984 168.998886,350.325806 
	C157.691010,370.658142 144.238922,389.473663 126.025337,404.330078 
	C108.703522,418.459106 89.365044,425.827454 67.210464,417.832581 
	C59.105328,414.907684 51.158974,410.223267 44.622017,404.614502 
	C36.873352,397.966003 30.689690,389.483337 23.924877,381.711060 
	C23.052574,380.708801 22.761528,379.200684 22.201223,377.926880 
	C22.635885,377.599365 23.070545,377.271820 23.505207,376.944305 
	C25.024534,378.279144 26.588053,379.567261 28.056181,380.956238 
	C39.135426,391.438324 50.873623,400.867706 65.842628,405.345459 
	C78.198471,409.041565 89.791237,407.755768 100.667336,400.576660 
	C111.699982,393.294159 120.342705,383.719818 127.731926,372.896515 
	C144.141052,348.861267 155.301270,322.287262 165.729706,295.047821 
	C158.289932,291.935028 150.989624,289.245880 144.034302,285.850098 
	C138.851669,283.319855 133.742981,280.335724 129.274963,276.721100 
	C123.752365,272.253326 122.369041,265.419373 124.683334,259.590637 
	C127.310776,252.973297 132.889664,249.812332 139.272202,250.386536 
	C149.151810,251.275345 158.903809,253.620331 168.695648,255.425308 
	C171.939926,256.023346 175.140198,256.860168 179.148087,257.765747 
	C190.106781,220.821274 201.011490,184.058762 211.987015,146.899750 
M239.850174,164.301224 
	C229.656937,197.723434 219.463699,231.145660 209.009018,265.425079 
	C235.539108,269.538818 262.350006,273.696106 289.836853,277.958221 
	C275.611481,229.839005 261.805450,183.138336 247.645584,135.240784 
	C244.853363,145.561661 242.427048,154.530075 239.850174,164.301224 
M251.495346,295.038849 
	C249.351578,294.777863 247.213181,294.452057 245.062546,294.274109 
	C242.918274,294.096680 240.761765,294.067505 238.610611,293.973328 
	C238.822998,293.795258 239.035385,293.617188 239.247772,293.439117 
	C261.595917,305.877533 283.944061,318.315918 306.113708,330.654968 
	C303.334045,321.552460 300.123779,311.658142 297.365540,301.639404 
	C296.512146,298.539734 295.053894,298.009552 292.196869,297.844910 
	C278.923187,297.080170 265.665466,296.038635 251.495346,295.038849 
M330.598633,373.627411 
	C330.181274,374.423737 329.245026,375.372101 329.426880,375.992889 
	C331.243134,382.191895 333.125122,388.377869 335.233673,394.482819 
	C336.641174,398.557892 338.445129,402.496033 340.071655,406.495483 
	C341.956970,394.193268 338.098785,383.730743 330.598633,373.627411 
z"/>
<path fill="#020202" opacity="1.000000" stroke="none" 
	d="
M239.925446,163.899857 
	C242.427048,154.530075 244.853363,145.561661 247.645584,135.240784 
	C261.805450,183.138336 275.611481,229.839005 289.836853,277.958221 
	C262.350006,273.696106 235.539108,269.538818 209.009018,265.425079 
	C219.463699,231.145660 229.656937,197.723434 239.925446,163.899857 
z"/>
<path fill="#050505" opacity="1.000000" stroke="none" 
	d="
M251.948669,295.067505 
	C265.665466,296.038635 278.923187,297.080170 292.196869,297.844910 
	C295.053894,298.009552 296.512146,298.539734 297.365540,301.639404 
	C300.123779,311.658142 303.334045,321.552460 306.113708,330.654968 
	C283.944061,318.315918 261.595917,305.877533 239.247772,293.439117 
	C239.035385,293.617188 238.822998,293.795258 238.610611,293.973328 
	C240.761765,294.067505 242.918274,294.096680 245.062546,294.274109 
	C247.213181,294.452057 249.351578,294.777863 251.948669,295.067505 
z"/>
<path fill="#0E0E0E" opacity="1.000000" stroke="none" 
	d="
M330.829895,373.929779 
	C338.098785,383.730743 341.956970,394.193268 340.071655,406.495483 
	C338.445129,402.496033 336.641174,398.557892 335.233673,394.482819 
	C333.125122,388.377869 331.243134,382.191895 329.426880,375.992889 
	C329.245026,375.372101 330.181274,374.423737 330.829895,373.929779 
z"/>
</svg>